<?xml version="1.0" encoding="UTF-8" standalone="no"?>
<!DOCTYPE svg PUBLIC "-//W3C//DTD SVG 1.1//EN"
 "http://www.w3.org/Graphics/SVG/1.1/DTD/svg11.dtd">
<!-- Generated by graphviz version 2.26.3 (20100126.1600)
 -->
<!-- Title: G Pages: 1 -->
<svg width="340pt" height="476pt"
 viewBox="0.00 0.00 340.00 476.00" xmlns="http://www.w3.org/2000/svg" xmlns:xlink="http://www.w3.org/1999/xlink">
<g id="graph1" class="graph" transform="scale(1 1) rotate(0) translate(4 472)">
<title>G</title>
<polygon fill="white" stroke="white" points="-4,5 -4,-472 337,-472 337,5 -4,5"/>
<g id="graph2" class="cluster"><title>cluster_global</title>
<polyline fill="none" stroke="gray" points="202,-8 312,-8 "/>
<path fill="none" stroke="gray" d="M312,-8C318,-8 324,-14 324,-20"/>
<polyline fill="none" stroke="gray" points="324,-20 324,-448 "/>
<path fill="none" stroke="gray" d="M324,-448C324,-454 318,-460 312,-460"/>
<polyline fill="none" stroke="gray" points="312,-460 202,-460 "/>
<path fill="none" stroke="gray" d="M202,-460C196,-460 190,-454 190,-448"/>
<polyline fill="none" stroke="gray" points="190,-448 190,-20 "/>
<path fill="none" stroke="gray" d="M190,-20C190,-14 196,-8 202,-8"/>
<text text-anchor="middle" x="257" y="-446.1" font-family="Times Roman,serif" font-size="11.00" fill="gray">global</text>
</g>
<!-- \\Version -->
<g id="node2" class="node"><title>\\Version</title>
<a xlink:href="version.html" xlink:title="Version" target="_parent">
<polygon fill="none" stroke="black" points="289,-430 225,-430 225,-394 289,-394 289,-430"/>
<text text-anchor="middle" x="257" y="-409.1" font-family="Courier,monospace" font-size="11.00">Version</text>
</a>
</g>
<!-- \\MySQLException -->
<g id="node3" class="node"><title>\\MySQLException</title>
<a xlink:href="classes.class.exceptionMySQL.html" xlink:title="MySQLException" target="_parent">
<polygon fill="none" stroke="black" points="312,-376 202,-376 202,-340 312,-340 312,-376"/>
<text text-anchor="middle" x="257" y="-355.1" font-family="Courier,monospace" font-size="11.00">MySQLException</text>
</a>
</g>
<!-- \\Exception -->
<g id="node11" class="node"><title>\\Exception</title>
<ellipse fill="none" stroke="black" cx="63" cy="-250" rx="62.9325" ry="18.3848"/>
<text text-anchor="middle" x="63" y="-246.4" font-family="Times Roman,serif" font-size="14.00" fill="gray">\Exception</text>
</g>
<!-- \\MySQLException&#45;&gt;\\Exception -->
<g id="edge3" class="edge"><title>\\MySQLException&#45;&gt;\\Exception</title>
<path fill="none" stroke="black" d="M208.932,-339.887C202.483,-337.093 196.021,-334.1 190,-331 156.306,-313.654 120.063,-289.991 94.9534,-272.721"/>
<polygon fill="none" stroke="black" points="96.7707,-269.722 86.5587,-266.9 92.7818,-275.474 96.7707,-269.722"/>
</g>
<!-- \\Authentication -->
<g id="node4" class="node"><title>\\Authentication</title>
<a xlink:href="classes.class.authentication.html" xlink:title="Authentication" target="_parent">
<polygon fill="none" stroke="black" points="312,-322 202,-322 202,-286 312,-286 312,-322"/>
<text text-anchor="middle" x="257" y="-301.1" font-family="Courier,monospace" font-size="11.00">Authentication</text>
</a>
</g>
<!-- \\ErrorCodes -->
<g id="node5" class="node"><title>\\ErrorCodes</title>
<a xlink:href="classes.class.errors.html" xlink:title="ErrorCodes" target="_parent">
<polygon fill="none" stroke="black" points="299,-268 215,-268 215,-232 299,-232 299,-268"/>
<text text-anchor="middle" x="257" y="-247.1" font-family="Courier,monospace" font-size="11.00">ErrorCodes</text>
</a>
</g>
<!-- \\Logging -->
<g id="node6" class="node"><title>\\Logging</title>
<a xlink:href="classes.class.errors.html" xlink:title="Logging" target="_parent">
<polygon fill="none" stroke="black" points="289,-214 225,-214 225,-178 289,-178 289,-214"/>
<text text-anchor="middle" x="257" y="-193.1" font-family="Courier,monospace" font-size="11.00">Logging</text>
</a>
</g>
<!-- \\HandleException -->
<g id="node7" class="node"><title>\\HandleException</title>
<a xlink:href="classes.class.errors.html" xlink:title="HandleException" target="_parent">
<polygon fill="none" stroke="black" points="316,-160 198,-160 198,-124 316,-124 316,-160"/>
<text text-anchor="middle" x="257" y="-139.1" font-family="Courier,monospace" font-size="11.00">HandleException</text>
</a>
</g>
<!-- \\HandleException&#45;&gt;\\Exception -->
<g id="edge5" class="edge"><title>\\HandleException&#45;&gt;\\Exception</title>
<path fill="none" stroke="black" d="M208.932,-160.113C202.483,-162.907 196.021,-165.9 190,-169 156.306,-186.346 120.063,-210.009 94.9534,-227.279"/>
<polygon fill="none" stroke="black" points="92.7818,-224.526 86.5587,-233.1 96.7707,-230.278 92.7818,-224.526"/>
</g>
<!-- \\Crypto -->
<g id="node8" class="node"><title>\\Crypto</title>
<a xlink:href="classes.class.crypto.html" xlink:title="Crypto" target="_parent">
<polygon fill="none" stroke="black" points="285,-106 229,-106 229,-70 285,-70 285,-106"/>
<text text-anchor="middle" x="257" y="-85.1" font-family="Courier,monospace" font-size="11.00">Crypto</text>
</a>
</g>
<!-- \\HTML -->
<g id="node9" class="node"><title>\\HTML</title>
<a xlink:href="classes.class.html.html" xlink:title="HTML" target="_parent">
<polygon fill="none" stroke="black" points="284,-52 230,-52 230,-16 284,-16 284,-52"/>
<text text-anchor="middle" x="257" y="-31.1" font-family="Courier,monospace" font-size="11.00">HTML</text>
</a>
</g>
</g>
</svg>
