<?xml version="1.0" encoding="UTF-8" standalone="no"?>
<!DOCTYPE svg PUBLIC "-//W3C//DTD SVG 1.1//EN"
 "http://www.w3.org/Graphics/SVG/1.1/DTD/svg11.dtd">
<!-- Generated by graphviz version 2.26.3 (20100126.1600)
 -->
<!-- Title: G Pages: 1 -->
<svg width="354pt" height="584pt"
 viewBox="0.00 0.00 354.00 584.00" xmlns="http://www.w3.org/2000/svg" xmlns:xlink="http://www.w3.org/1999/xlink">
<g id="graph1" class="graph" transform="scale(1 1) rotate(0) translate(4 580)">
<title>G</title>
<polygon fill="white" stroke="white" points="-4,5 -4,-580 351,-580 351,5 -4,5"/>
<g id="graph2" class="cluster"><title>cluster_global</title>
<polyline fill="none" stroke="gray" points="202,-8 326,-8 "/>
<path fill="none" stroke="gray" d="M326,-8C332,-8 338,-14 338,-20"/>
<polyline fill="none" stroke="gray" points="338,-20 338,-556 "/>
<path fill="none" stroke="gray" d="M338,-556C338,-562 332,-568 326,-568"/>
<polyline fill="none" stroke="gray" points="326,-568 202,-568 "/>
<path fill="none" stroke="gray" d="M202,-568C196,-568 190,-562 190,-556"/>
<polyline fill="none" stroke="gray" points="190,-556 190,-20 "/>
<path fill="none" stroke="gray" d="M190,-20C190,-14 196,-8 202,-8"/>
<text text-anchor="middle" x="264" y="-554.1" font-family="Times Roman,serif" font-size="11.00" fill="gray">global</text>
</g>
<!-- \\Config -->
<g id="node2" class="node"><title>\\Config</title>
<a xlink:href="config.html" xlink:title="Config" target="_parent">
<polygon fill="none" stroke="black" points="292,-538 236,-538 236,-502 292,-502 292,-538"/>
<text text-anchor="middle" x="264" y="-517.1" font-family="Courier,monospace" font-size="11.00">Config</text>
</a>
</g>
<!-- \\Version -->
<g id="node3" class="node"><title>\\Version</title>
<a xlink:href="version.html" xlink:title="Version" target="_parent">
<polygon fill="none" stroke="black" points="296,-484 232,-484 232,-448 296,-448 296,-484"/>
<text text-anchor="middle" x="264" y="-463.1" font-family="Courier,monospace" font-size="11.00">Version</text>
</a>
</g>
<!-- \\Authentication -->
<g id="node4" class="node"><title>\\Authentication</title>
<a xlink:href="classes.class.authentication.html" xlink:title="Authentication" target="_parent">
<polygon fill="none" stroke="black" points="319,-430 209,-430 209,-394 319,-394 319,-430"/>
<text text-anchor="middle" x="264" y="-409.1" font-family="Courier,monospace" font-size="11.00">Authentication</text>
</a>
</g>
<!-- \\ErrorCodes -->
<g id="node5" class="node"><title>\\ErrorCodes</title>
<a xlink:href="classes.class.errors.html" xlink:title="ErrorCodes" target="_parent">
<polygon fill="none" stroke="black" points="306,-376 222,-376 222,-340 306,-340 306,-376"/>
<text text-anchor="middle" x="264" y="-355.1" font-family="Courier,monospace" font-size="11.00">ErrorCodes</text>
</a>
</g>
<!-- \\Logging -->
<g id="node6" class="node"><title>\\Logging</title>
<a xlink:href="classes.class.errors.html" xlink:title="Logging" target="_parent">
<polygon fill="none" stroke="black" points="296,-322 232,-322 232,-286 296,-286 296,-322"/>
<text text-anchor="middle" x="264" y="-301.1" font-family="Courier,monospace" font-size="11.00">Logging</text>
</a>
</g>
<!-- \\HandleException -->
<g id="node7" class="node"><title>\\HandleException</title>
<a xlink:href="classes.class.errors.html" xlink:title="HandleException" target="_parent">
<polygon fill="none" stroke="black" points="323,-268 205,-268 205,-232 323,-232 323,-268"/>
<text text-anchor="middle" x="264" y="-247.1" font-family="Courier,monospace" font-size="11.00">HandleException</text>
</a>
</g>
<!-- \\Exception -->
<g id="node13" class="node"><title>\\Exception</title>
<ellipse fill="none" stroke="black" cx="63" cy="-142" rx="62.9325" ry="18.3848"/>
<text text-anchor="middle" x="63" y="-138.4" font-family="Times Roman,serif" font-size="14.00" fill="gray">\Exception</text>
</g>
<!-- \\HandleException&#45;&gt;\\Exception -->
<g id="edge3" class="edge"><title>\\HandleException&#45;&gt;\\Exception</title>
<path fill="none" stroke="black" d="M210.066,-231.889C203.215,-229.133 196.376,-226.149 190,-223 155.812,-206.113 119.37,-182.186 94.3311,-164.716"/>
<polygon fill="none" stroke="black" points="96.1637,-161.726 85.9727,-158.828 92.1325,-167.449 96.1637,-161.726"/>
</g>
<!-- \\Crypto -->
<g id="node8" class="node"><title>\\Crypto</title>
<a xlink:href="classes.class.crypto.html" xlink:title="Crypto" target="_parent">
<polygon fill="none" stroke="black" points="292,-214 236,-214 236,-178 292,-178 292,-214"/>
<text text-anchor="middle" x="264" y="-193.1" font-family="Courier,monospace" font-size="11.00">Crypto</text>
</a>
</g>
<!-- \\PhealGood -->
<g id="node9" class="node"><title>\\PhealGood</title>
<a xlink:href="classes.class.phealgood.html" xlink:title="PhealGood" target="_parent">
<polygon fill="none" stroke="black" points="302,-160 226,-160 226,-124 302,-124 302,-160"/>
<text text-anchor="middle" x="264" y="-139.1" font-family="Courier,monospace" font-size="11.00">PhealGood</text>
</a>
</g>
<!-- \\HTML -->
<g id="node10" class="node"><title>\\HTML</title>
<a xlink:href="classes.class.html.html" xlink:title="HTML" target="_parent">
<polygon fill="none" stroke="black" points="291,-106 237,-106 237,-70 291,-70 291,-106"/>
<text text-anchor="middle" x="264" y="-85.1" font-family="Courier,monospace" font-size="11.00">HTML</text>
</a>
</g>
<!-- \\EvespeakException -->
<g id="node11" class="node"><title>\\EvespeakException</title>
<a xlink:href="classes.class.Exceptions.html" xlink:title="EvespeakException" target="_parent">
<polygon fill="none" stroke="black" points="329,-52 199,-52 199,-16 329,-16 329,-52"/>
<text text-anchor="middle" x="264" y="-31.1" font-family="Courier,monospace" font-size="11.00">EvespeakException</text>
</a>
</g>
<!-- \\EvespeakException&#45;&gt;\\Exception -->
<g id="edge5" class="edge"><title>\\EvespeakException&#45;&gt;\\Exception</title>
<path fill="none" stroke="black" d="M210.066,-52.1108C203.215,-54.8666 196.376,-57.8506 190,-61 155.812,-77.8872 119.37,-101.814 94.3311,-119.284"/>
<polygon fill="none" stroke="black" points="92.1325,-116.551 85.9727,-125.172 96.1637,-122.274 92.1325,-116.551"/>
</g>
</g>
</svg>
