<?xml version="1.0" encoding="UTF-8" standalone="no"?>
<!DOCTYPE svg PUBLIC "-//W3C//DTD SVG 1.1//EN"
 "http://www.w3.org/Graphics/SVG/1.1/DTD/svg11.dtd">
<!-- Generated by graphviz version 2.26.3 (20100126.1600)
 -->
<!-- Title: G Pages: 1 -->
<svg width="340pt" height="584pt"
 viewBox="0.00 0.00 340.00 584.00" xmlns="http://www.w3.org/2000/svg" xmlns:xlink="http://www.w3.org/1999/xlink">
<g id="graph1" class="graph" transform="scale(1 1) rotate(0) translate(4 580)">
<title>G</title>
<polygon fill="white" stroke="white" points="-4,5 -4,-580 337,-580 337,5 -4,5"/>
<g id="graph2" class="cluster"><title>cluster_global</title>
<polyline fill="none" stroke="gray" points="202,-8 312,-8 "/>
<path fill="none" stroke="gray" d="M312,-8C318,-8 324,-14 324,-20"/>
<polyline fill="none" stroke="gray" points="324,-20 324,-556 "/>
<path fill="none" stroke="gray" d="M324,-556C324,-562 318,-568 312,-568"/>
<polyline fill="none" stroke="gray" points="312,-568 202,-568 "/>
<path fill="none" stroke="gray" d="M202,-568C196,-568 190,-562 190,-556"/>
<polyline fill="none" stroke="gray" points="190,-556 190,-20 "/>
<path fill="none" stroke="gray" d="M190,-20C190,-14 196,-8 202,-8"/>
<text text-anchor="middle" x="257" y="-554.1" font-family="Times Roman,serif" font-size="11.00" fill="gray">global</text>
</g>
<!-- \\Config -->
<g id="node2" class="node"><title>\\Config</title>
<a xlink:href="config.html" xlink:title="Config" target="_parent">
<polygon fill="none" stroke="black" points="285,-538 229,-538 229,-502 285,-502 285,-538"/>
<text text-anchor="middle" x="257" y="-517.1" font-family="Courier,monospace" font-size="11.00">Config</text>
</a>
</g>
<!-- \\Version -->
<g id="node3" class="node"><title>\\Version</title>
<a xlink:href="version.html" xlink:title="Version" target="_parent">
<polygon fill="none" stroke="black" points="289,-484 225,-484 225,-448 289,-448 289,-484"/>
<text text-anchor="middle" x="257" y="-463.1" font-family="Courier,monospace" font-size="11.00">Version</text>
</a>
</g>
<!-- \\MySQLException -->
<g id="node4" class="node"><title>\\MySQLException</title>
<a xlink:href="classes.class.exceptionMySQL.html" xlink:title="MySQLException" target="_parent">
<polygon fill="none" stroke="black" points="312,-430 202,-430 202,-394 312,-394 312,-430"/>
<text text-anchor="middle" x="257" y="-409.1" font-family="Courier,monospace" font-size="11.00">MySQLException</text>
</a>
</g>
<!-- \\Exception -->
<g id="node13" class="node"><title>\\Exception</title>
<ellipse fill="none" stroke="black" cx="63" cy="-304" rx="62.9325" ry="18.3848"/>
<text text-anchor="middle" x="63" y="-300.4" font-family="Times Roman,serif" font-size="14.00" fill="gray">\Exception</text>
</g>
<!-- \\MySQLException&#45;&gt;\\Exception -->
<g id="edge3" class="edge"><title>\\MySQLException&#45;&gt;\\Exception</title>
<path fill="none" stroke="black" d="M208.932,-393.887C202.483,-391.093 196.021,-388.1 190,-385 156.306,-367.654 120.063,-343.991 94.9534,-326.721"/>
<polygon fill="none" stroke="black" points="96.7707,-323.722 86.5587,-320.9 92.7818,-329.474 96.7707,-323.722"/>
</g>
<!-- \\Authentication -->
<g id="node5" class="node"><title>\\Authentication</title>
<a xlink:href="classes.class.authentication.html" xlink:title="Authentication" target="_parent">
<polygon fill="none" stroke="black" points="312,-376 202,-376 202,-340 312,-340 312,-376"/>
<text text-anchor="middle" x="257" y="-355.1" font-family="Courier,monospace" font-size="11.00">Authentication</text>
</a>
</g>
<!-- \\ErrorCodes -->
<g id="node6" class="node"><title>\\ErrorCodes</title>
<a xlink:href="classes.class.errors.html" xlink:title="ErrorCodes" target="_parent">
<polygon fill="none" stroke="black" points="299,-322 215,-322 215,-286 299,-286 299,-322"/>
<text text-anchor="middle" x="257" y="-301.1" font-family="Courier,monospace" font-size="11.00">ErrorCodes</text>
</a>
</g>
<!-- \\Logging -->
<g id="node7" class="node"><title>\\Logging</title>
<a xlink:href="classes.class.errors.html" xlink:title="Logging" target="_parent">
<polygon fill="none" stroke="black" points="289,-268 225,-268 225,-232 289,-232 289,-268"/>
<text text-anchor="middle" x="257" y="-247.1" font-family="Courier,monospace" font-size="11.00">Logging</text>
</a>
</g>
<!-- \\HandleException -->
<g id="node8" class="node"><title>\\HandleException</title>
<a xlink:href="classes.class.errors.html" xlink:title="HandleException" target="_parent">
<polygon fill="none" stroke="black" points="316,-214 198,-214 198,-178 316,-178 316,-214"/>
<text text-anchor="middle" x="257" y="-193.1" font-family="Courier,monospace" font-size="11.00">HandleException</text>
</a>
</g>
<!-- \\HandleException&#45;&gt;\\Exception -->
<g id="edge5" class="edge"><title>\\HandleException&#45;&gt;\\Exception</title>
<path fill="none" stroke="black" d="M208.932,-214.113C202.483,-216.907 196.021,-219.9 190,-223 156.306,-240.346 120.063,-264.009 94.9534,-281.279"/>
<polygon fill="none" stroke="black" points="92.7818,-278.526 86.5587,-287.1 96.7707,-284.278 92.7818,-278.526"/>
</g>
<!-- \\Crypto -->
<g id="node9" class="node"><title>\\Crypto</title>
<a xlink:href="classes.class.crypto.html" xlink:title="Crypto" target="_parent">
<polygon fill="none" stroke="black" points="285,-160 229,-160 229,-124 285,-124 285,-160"/>
<text text-anchor="middle" x="257" y="-139.1" font-family="Courier,monospace" font-size="11.00">Crypto</text>
</a>
</g>
<!-- \\PhealGood -->
<g id="node10" class="node"><title>\\PhealGood</title>
<a xlink:href="classes.class.phealgood.html" xlink:title="PhealGood" target="_parent">
<polygon fill="none" stroke="black" points="295,-106 219,-106 219,-70 295,-70 295,-106"/>
<text text-anchor="middle" x="257" y="-85.1" font-family="Courier,monospace" font-size="11.00">PhealGood</text>
</a>
</g>
<!-- \\HTML -->
<g id="node11" class="node"><title>\\HTML</title>
<a xlink:href="classes.class.html.html" xlink:title="HTML" target="_parent">
<polygon fill="none" stroke="black" points="284,-52 230,-52 230,-16 284,-16 284,-52"/>
<text text-anchor="middle" x="257" y="-31.1" font-family="Courier,monospace" font-size="11.00">HTML</text>
</a>
</g>
</g>
</svg>
